<svg width="4096" height="2000" viewBox="0 0 4096 2000" fill="none" xmlns="http://www.w3.org/2000/svg">
<path d="M817.926 950.074L1010.57 757.426C1048.37 719.629 1113 746.398 1113 799.853V1185.15C1113 1238.6 1048.37 1265.37 1010.57 1227.57L817.926 1034.93C794.495 1011.49 794.495 973.505 817.926 950.074Z" fill="url(#paint0_linear_8_14)"/>
<path d="M1468.07 1034.93L1275.43 1227.57C1237.63 1265.37 1173 1238.6 1173 1185.15V799.853C1173 746.399 1237.63 719.629 1275.43 757.426L1468.07 950.074C1491.51 973.505 1491.51 1011.49 1468.07 1034.93Z" fill="url(#paint1_linear_8_14)"/>
<path d="M1908.24 893.182C1905.92 873.534 1896.48 858.281 1879.94 847.423C1863.39 836.565 1843.1 831.136 1819.05 831.136C1801.47 831.136 1786.09 833.98 1772.91 839.668C1759.85 845.355 1749.64 853.175 1742.27 863.129C1735.03 873.082 1731.41 884.392 1731.41 897.06C1731.41 907.659 1733.94 916.772 1738.98 924.398C1744.15 931.896 1750.74 938.165 1758.75 943.206C1766.77 948.118 1775.17 952.19 1783.96 955.421C1792.75 958.523 1800.83 961.044 1808.2 962.983L1848.53 973.841C1858.87 976.555 1870.37 980.304 1883.04 985.087C1895.84 989.869 1908.05 996.397 1919.68 1004.67C1931.45 1012.81 1941.14 1023.28 1948.77 1036.08C1956.39 1048.88 1960.21 1064.58 1960.21 1083.2C1960.21 1104.65 1954.58 1124.04 1943.34 1141.36C1932.22 1158.68 1915.94 1172.45 1894.48 1182.66C1873.15 1192.87 1847.23 1197.98 1816.73 1197.98C1788.29 1197.98 1763.67 1193.39 1742.85 1184.21C1722.17 1175.04 1705.89 1162.24 1693.99 1145.82C1682.23 1129.41 1675.57 1110.34 1674.02 1088.62H1723.66C1724.95 1103.62 1729.99 1116.03 1738.78 1125.85C1747.7 1135.55 1758.95 1142.79 1772.52 1147.57C1786.22 1152.22 1800.96 1154.55 1816.73 1154.55C1835.08 1154.55 1851.56 1151.58 1866.17 1145.63C1880.78 1139.55 1892.35 1131.15 1900.88 1120.42C1909.41 1109.57 1913.67 1096.9 1913.67 1082.42C1913.67 1069.24 1909.99 1058.51 1902.62 1050.23C1895.25 1041.96 1885.56 1035.24 1873.54 1030.07C1861.52 1024.9 1848.53 1020.37 1834.57 1016.5L1785.7 1002.54C1754.68 993.618 1730.12 980.886 1712.03 964.34C1693.93 947.795 1684.88 926.143 1684.88 899.386C1684.88 877.153 1690.89 857.764 1702.91 841.219C1715.06 824.544 1731.35 811.618 1751.77 802.44C1772.33 793.134 1795.27 788.48 1820.61 788.48C1846.2 788.48 1868.95 793.069 1888.86 802.246C1908.76 811.295 1924.53 823.704 1936.16 839.474C1947.93 855.244 1954.13 873.146 1954.78 893.182H1908.24ZM2162.58 893.182V931.96H2008.24V893.182H2162.58ZM2053.23 821.83H2098.99V1105.69C2098.99 1118.61 2100.86 1128.31 2104.61 1134.77C2108.49 1141.11 2113.4 1145.37 2119.34 1147.57C2125.42 1149.64 2131.82 1150.67 2138.54 1150.67C2143.58 1150.67 2147.72 1150.41 2150.95 1149.89C2154.18 1149.25 2156.77 1148.73 2158.7 1148.34L2168.01 1189.45C2164.91 1190.61 2160.58 1191.78 2155.02 1192.94C2149.46 1194.23 2142.42 1194.88 2133.89 1194.88C2120.96 1194.88 2108.29 1192.1 2095.88 1186.54C2083.6 1180.98 2073.39 1172.52 2065.25 1161.14C2057.23 1149.77 2053.23 1135.42 2053.23 1118.1V821.83ZM2319.05 1197.98C2300.18 1197.98 2283.05 1194.43 2267.67 1187.32C2252.29 1180.08 2240.07 1169.67 2231.03 1156.1C2221.98 1142.4 2217.45 1125.85 2217.45 1106.46C2217.45 1089.4 2220.81 1075.57 2227.54 1064.97C2234.26 1054.24 2243.24 1045.84 2254.49 1039.76C2265.73 1033.69 2278.14 1029.16 2291.71 1026.19C2305.42 1023.09 2319.18 1020.63 2333.01 1018.82C2351.11 1016.5 2365.78 1014.75 2377.03 1013.59C2388.4 1012.3 2396.67 1010.16 2401.84 1007.19C2407.14 1004.22 2409.79 999.047 2409.79 991.679V990.128C2409.79 970.997 2404.56 956.132 2394.09 945.533C2383.75 934.933 2368.04 929.634 2346.97 929.634C2325.13 929.634 2308 934.416 2295.59 943.982C2283.18 953.547 2274.46 963.759 2269.42 974.616L2225.98 959.105C2233.74 941.009 2244.08 926.919 2257.01 916.837C2270.06 906.625 2284.28 899.516 2299.66 895.509C2315.18 891.372 2330.43 889.304 2345.42 889.304C2354.99 889.304 2365.97 890.467 2378.38 892.794C2390.92 894.991 2403.01 899.58 2414.64 906.56C2426.4 913.54 2436.16 924.075 2443.92 938.165C2451.68 952.254 2455.55 971.126 2455.55 994.781V1191H2409.79V1150.67H2407.47C2404.37 1157.13 2399.2 1164.05 2391.96 1171.42C2384.72 1178.78 2375.09 1185.05 2363.07 1190.22C2351.05 1195.39 2336.37 1197.98 2319.05 1197.98ZM2326.03 1156.88C2344.13 1156.88 2359.38 1153.32 2371.79 1146.21C2384.33 1139.1 2393.77 1129.92 2400.1 1118.68C2406.56 1107.43 2409.79 1095.61 2409.79 1083.2V1041.32C2407.86 1043.64 2403.59 1045.77 2397 1047.71C2390.53 1049.52 2383.04 1051.14 2374.51 1052.56C2366.1 1053.85 2357.9 1055.02 2349.88 1056.05C2342 1056.96 2335.6 1057.73 2330.69 1058.38C2318.79 1059.93 2307.68 1062.45 2297.34 1065.94C2287.13 1069.3 2278.85 1074.41 2272.52 1081.26C2266.31 1087.98 2263.21 1097.16 2263.21 1108.79C2263.21 1124.69 2269.09 1136.71 2280.86 1144.85C2292.75 1152.87 2307.81 1156.88 2326.03 1156.88ZM2557.88 1302.68C2550.12 1302.68 2543.21 1302.04 2537.13 1300.74C2531.06 1299.58 2526.86 1298.42 2524.53 1297.25L2536.16 1256.92C2547.28 1259.77 2557.1 1260.8 2565.64 1260.03C2574.17 1259.25 2581.73 1255.44 2588.32 1248.59C2595.04 1241.86 2601.18 1230.94 2606.74 1215.82L2615.27 1192.55L2505.14 893.182H2554.78L2636.99 1130.51H2640.09L2722.3 893.182H2771.94L2645.52 1234.43C2639.83 1249.81 2632.79 1262.55 2624.38 1272.63C2615.98 1282.84 2606.22 1290.4 2595.11 1295.31C2584.12 1300.23 2571.71 1302.68 2557.88 1302.68ZM3109.99 918C3105.72 904.945 3100.1 893.246 3093.12 882.906C3086.27 872.435 3078.06 863.516 3068.49 856.148C3059.06 848.781 3048.33 843.158 3036.31 839.28C3024.29 835.402 3011.1 833.463 2996.75 833.463C2973.23 833.463 2951.84 839.538 2932.58 851.689C2913.32 863.839 2898 881.742 2886.62 905.397C2875.25 929.052 2869.56 958.071 2869.56 992.455C2869.56 1026.84 2875.31 1055.86 2886.82 1079.51C2898.32 1103.17 2913.9 1121.07 2933.55 1133.22C2953.19 1145.37 2975.3 1151.45 2999.86 1151.45C3022.61 1151.45 3042.64 1146.6 3059.96 1136.9C3077.41 1127.08 3090.99 1113.25 3100.68 1095.41C3110.5 1077.44 3115.42 1056.31 3115.42 1032.01L3130.15 1035.11H3010.71V992.455H3161.95V1035.11C3161.95 1067.81 3154.97 1096.25 3141.01 1120.42C3127.18 1144.6 3108.05 1163.34 3083.62 1176.65C3059.32 1189.84 3031.4 1196.43 2999.86 1196.43C2964.7 1196.43 2933.8 1188.16 2907.18 1171.61C2880.68 1155.07 2860 1131.54 2845.13 1101.03C2830.39 1070.53 2823.03 1034.34 2823.03 992.455C2823.03 961.044 2827.23 932.8 2835.63 907.724C2844.16 882.518 2856.18 861.06 2871.69 843.352C2887.21 825.643 2905.56 812.07 2926.76 802.634C2947.96 793.198 2971.29 788.48 2996.75 788.48C3017.69 788.48 3037.21 791.647 3055.31 797.981C3073.54 804.185 3089.76 813.04 3103.98 824.544C3118.32 835.919 3130.28 849.556 3139.85 865.455C3149.41 881.225 3156 898.74 3159.62 918H3109.99ZM3359.09 1197.2C3332.2 1197.2 3308.61 1190.81 3288.32 1178.01C3268.15 1165.21 3252.38 1147.31 3241.01 1124.3C3229.76 1101.29 3224.14 1074.41 3224.14 1043.64C3224.14 1012.62 3229.76 985.539 3241.01 962.401C3252.38 939.263 3268.15 921.296 3288.32 908.499C3308.61 895.702 3332.2 889.304 3359.09 889.304C3385.98 889.304 3409.5 895.702 3429.67 908.499C3449.96 921.296 3465.73 939.263 3476.98 962.401C3488.35 985.539 3494.04 1012.62 3494.04 1043.64C3494.04 1074.41 3488.35 1101.29 3476.98 1124.3C3465.73 1147.31 3449.96 1165.21 3429.67 1178.01C3409.5 1190.81 3385.98 1197.2 3359.09 1197.2ZM3359.09 1156.1C3379.51 1156.1 3396.32 1150.86 3409.5 1140.39C3422.69 1129.92 3432.45 1116.16 3438.78 1099.1C3445.11 1082.03 3448.28 1063.55 3448.28 1043.64C3448.28 1023.74 3445.11 1005.19 3438.78 987.995C3432.45 970.803 3422.69 956.908 3409.5 946.308C3396.32 935.709 3379.51 930.409 3359.09 930.409C3338.67 930.409 3321.86 935.709 3308.68 946.308C3295.49 956.908 3285.73 970.803 3279.4 987.995C3273.07 1005.19 3269.9 1023.74 3269.9 1043.64C3269.9 1063.55 3273.07 1082.03 3279.4 1099.1C3285.73 1116.16 3295.49 1129.92 3308.68 1140.39C3321.86 1150.86 3338.67 1156.1 3359.09 1156.1Z" fill="white"/>
<defs>
<linearGradient id="paint0_linear_8_14" x1="944.25" y1="1330" x2="944.25" y2="655" gradientUnits="userSpaceOnUse">
<stop stop-color="#81FF62"/>
<stop offset="1" stop-color="#0BFBEC"/>
</linearGradient>
<linearGradient id="paint1_linear_8_14" x1="1341.75" y1="655" x2="1341.75" y2="1330" gradientUnits="userSpaceOnUse">
<stop stop-color="#6271FF"/>
<stop offset="1" stop-color="#0BECFB"/>
</linearGradient>
</defs>
</svg>
